<svg version="1.1" xmlns="http://www.w3.org/2000/svg" xmlns:xlink="http://www.w3.org/1999/xlink" width="576px" height="512px" viewBox="0,0,256,227.55469"><g fill="#91c8e4" fill-rule="nonzero" stroke="none" stroke-width="1" stroke-linecap="butt" stroke-linejoin="miter" stroke-miterlimit="10" stroke-dasharray="" stroke-dashoffset="0" font-family="none" font-weight="none" font-size="none" text-anchor="none" style="mix-blend-mode: normal"><g transform="translate(0,1.6742) scale(0.44444,0.44444)"><path d="M249.6,471.5c10.8,3.8 22.4,-4.1 22.4,-15.5v-377.4c0,-4.2 -1.6,-8.4 -5,-11c-19.6,-15.6 -64.6,-35.6 -123,-35.6c-50.5,0 -97.7,13.3 -125.9,24.1c-11.3,4.4 -18.1,15.6 -18.1,27.7v370.3c0,11.9 12.8,20.2 24.1,16.5c31.5,-10.5 81.4,-22.6 119.9,-22.6c33.9,0 79,14 105.6,23.5zM326.4,471.5c26.6,-9.5 71.7,-23.5 105.6,-23.5c38.5,0 88.4,12.1 119.9,22.6c11.3,3.8 24.1,-4.6 24.1,-16.5v-370.3c0,-12.1 -6.8,-23.3 -18.1,-27.6c-28.2,-10.9 -75.4,-24.2 -125.9,-24.2c-58.4,0 -103.4,20 -123,35.6c-3.3,2.6 -5,6.8 -5,11v377.4c0,11.4 11.7,19.3 22.4,15.5z"></path></g></g></svg>